<svg xmlns="http://www.w3.org/2000/svg" viewBox="0 0 864 864"><defs><style>.cls-1{fill:#fff;stroke:#ec1c24;stroke-miterlimit:10;stroke-width:0.72px;}</style></defs><title>arduinoScreamingV5Artboard 1</title><g id="bottom"><polygon class="cls-1" points="465.74 25.5 462.16 25.5 462.16 34.5 350.56 34.5 350.56 25.5 346.99 25.5 224.47 25.5 220.89 25.5 220.89 34.5 109.29 34.5 109.29 25.5 105.72 25.5 33.74 25.5 33.74 74.13 33.74 77.7 42.74 77.7 42.74 189.3 33.74 189.3 33.74 192.88 33.74 362.13 33.74 365.7 42.74 365.7 42.74 477.3 33.74 477.3 33.74 480.88 33.74 626.73 33.74 630.3 42.74 630.3 42.74 741.9 33.74 741.9 33.74 745.48 33.74 817.5 105.73 817.5 109.31 817.5 109.31 808.5 220.91 808.5 220.91 817.5 224.48 817.5 347 817.5 350.58 817.5 350.58 808.5 462.18 808.5 462.18 817.5 465.75 817.5 537.74 817.5 537.74 745.48 537.74 741.9 528.74 741.9 528.74 630.3 537.74 630.3 537.74 626.73 537.74 480.88 537.74 477.3 528.74 477.3 528.74 365.7 537.74 365.7 537.74 362.13 537.74 192.88 537.74 189.3 528.74 189.3 528.74 77.7 537.74 77.7 537.74 74.13 537.74 25.5 465.74 25.5"/></g><g id="top"><path class="cls-1" d="M683.57,178v352.8H806.89V178ZM774,507.59h-67.2V199.89H774Z"/></g></svg>