<svg xmlns="http://www.w3.org/2000/svg" viewBox="0 0 864 864"><defs><style>.cls-1,.cls-2{fill:#fff;stroke-miterlimit:10;stroke-width:0.72px;}.cls-1{stroke:red;stroke-linecap:square;}.cls-2{stroke:#ec1c24;}</style></defs><title>arduinoScreamingV5.1Artboard 2</title><g id="leftside"><path class="cls-1" d="M337.24,30.5v9H214.72v-9H96v9H33V79.12H24V197.88h9V367.12H24V485.88h9V631.72H24V750.47h9v63H96v9H214.73v-9H337.25v9h49.12V30.5ZM149,85a17,17,0,1,1-17,17A17,17,0,0,1,149,85Zm-5.5,96A11.5,11.5,0,1,1,132,192.5,11.5,11.5,0,0,1,143.47,181Zm5.5,48a17,17,0,1,1-17,17A17,17,0,0,1,149,229ZM381,339.85H49v-9.29H307.34V107.65h9.2V330.56H381Z"/></g><g id="rightside"><path class="cls-2" d="M445.93,30.5v9H568.46v-9H687.21v9h63V79.12h9V197.88h-9V367.12h9V485.88h-9V631.72h9V750.47h-9v63h-63v9H568.44v-9H445.92v9H396.8V30.5ZM402.2,339.85h332v-9.29H475.83V107.65h-9.2V330.56H402.2Z"/></g></svg>