<svg xmlns="http://www.w3.org/2000/svg" viewBox="0 0 864 864"><defs><style>.cls-1{fill:#fff;stroke:#ec1c24;stroke-miterlimit:10;stroke-width:0.72px;}</style></defs><title>arduinoScreamingV5Artboard 3</title><g id="back"><path class="cls-1" d="M530.52,642.83V514.36h-9.23V426H35.76v88.36H26.52V642.83h9.24v112H26.52v66.38h73.91v9H222.32v-9h112.4v9h121.9v-9h73.9V754.87h-9.23v-112Zm-36-164.39h-432v-16.2h432Z"/></g><g id="rightside"><path class="cls-1" d="M530.52,105.38V39h-73.9V30H334.72v9H222.32V30H100.43v9H26.52v66.38h9.24v112H26.52V345.89h9.24v46.49H521.29V345.89h9.23V217.42h-9.23v-112ZM169,199.89H97V84.69h72Zm88.11,0h-72V84.69h72Z"/><path class="cls-1" d="M588.68,38V542h216V38Zm16,214.92h40.25V327.1H604.68ZM625.47,380a12.67,12.67,0,1,1,12.67-12.67A12.67,12.67,0,0,1,625.47,380Zm59.21,0a12.67,12.67,0,1,1,12.67-12.67A12.67,12.67,0,0,1,684.68,380Zm58.21,0a12.67,12.67,0,1,1,12.67-12.67A12.67,12.67,0,0,1,742.89,380Zm24.67-208.25H625.79V135.43H767.56Z"/></g></svg>